<?xml version="1.0" encoding="UTF-8" standalone="no"?>
<!-- Generator: Adobe Illustrator 22.0.0, SVG Export Plug-In . SVG Version: 6.00 Build 0)  -->

<svg
   xmlns:dc="http://purl.org/dc/elements/1.1/"
   xmlns:cc="http://creativecommons.org/ns#"
   xmlns:rdf="http://www.w3.org/1999/02/22-rdf-syntax-ns#"
   xmlns:svg="http://www.w3.org/2000/svg"
   xmlns="http://www.w3.org/2000/svg"
   xmlns:sodipodi="http://sodipodi.sourceforge.net/DTD/sodipodi-0.dtd"
   xmlns:inkscape="http://www.inkscape.org/namespaces/inkscape"
   version="1.1"
   id="Emblem"
   x="0px"
   y="0px"
   viewBox="0 0 574.18799 324.20001"
   xml:space="preserve"
   sodipodi:docname="PS_Emblem_Beret.svg"
   width="574.18799"
   height="324.20001"
   inkscape:version="0.92.3 (2405546, 2018-03-11)"><metadata
   id="metadata415"><rdf:RDF><cc:Work
       rdf:about=""><dc:format>image/svg+xml</dc:format><dc:type
         rdf:resource="http://purl.org/dc/dcmitype/StillImage" /><dc:title></dc:title></cc:Work></rdf:RDF></metadata><defs
   id="defs413" /><sodipodi:namedview
   pagecolor="#ffffff"
   bordercolor="#666666"
   borderopacity="1"
   objecttolerance="10"
   gridtolerance="10"
   guidetolerance="10"
   inkscape:pageopacity="0"
   inkscape:pageshadow="2"
   inkscape:window-width="1280"
   inkscape:window-height="962"
   id="namedview411"
   showgrid="false"
   fit-margin-top="0"
   fit-margin-left="0"
   fit-margin-right="0"
   fit-margin-bottom="0"
   inkscape:zoom="2.0219858"
   inkscape:cx="287.094"
   inkscape:cy="162.10001"
   inkscape:window-x="-8"
   inkscape:window-y="-8"
   inkscape:window-maximized="1"
   inkscape:current-layer="Emblem" />
<style
   type="text/css"
   id="style2">
	.st0{fill:#5D4111;}
	.st1{fill:#A3742A;}
	.st2{fill:#CC9944;}
	.st3{fill:#FDD491;}
	.st4{fill-rule:evenodd;clip-rule:evenodd;fill:#A3742A;}
	.st5{fill-rule:evenodd;clip-rule:evenodd;fill:#CC9944;}
	.st6{fill-rule:evenodd;clip-rule:evenodd;fill:#FDD491;}
	.st7{fill:#DFB560;}
	.st8{fill-rule:evenodd;clip-rule:evenodd;fill:#DFB560;}
</style>
<g
   id="g408"
   transform="translate(-14.956,-140.3)">
	<path
   class="st0"
   d="m 588.7,167 c -0.2,-0.3 -0.5,-0.5 -0.8,-0.5 h -0.2 l -112,38.5 c -0.1,0 -0.2,0.1 -0.3,0.1 -0.3,0 -0.5,-0.1 -0.7,-0.3 -0.2,-0.2 -0.3,-0.4 -0.2,-0.7 0.2,-2.4 0.2,-3.9 -0.6,-4.7 -0.3,-0.4 -0.8,-0.6 -1.4,-0.6 -0.6,0 -1.3,0.2 -2.2,0.5 l -31.2,11.1 c -10.1,3.5 -21.2,8.8 -27.4,21.2 -1.4,2.8 -2.1,2.8 -2.1,2.8 0,0 -0.5,-0.2 -0.8,-2 v -46.9 c 0,-0.9 0,-1.6 0,-2.1 0,-0.6 -0.1,-1.6 -0.9,-2.2 -0.3,-0.2 -0.6,-0.3 -0.9,-0.3 -1.1,0 -2.7,0.8 -4,1.5 l -0.4,0.2 c -34.5,17.1 -51.3,46.5 -48.7,85.1 l 3.4,68.2 c 0,0.3 -0.1,0.5 -0.3,0.7 -0.2,0.2 -0.4,0.3 -0.7,0.3 h -26.9 c -0.3,0 -0.5,-0.1 -0.7,-0.3 -0.2,-0.2 -0.3,-0.4 -0.3,-0.7 l 5.1,-129.4 c 0.9,-26.8 -5.8,-42 -27.6,-62.7 -0.7,-0.7 -1.5,-1.5 -2.2,-2.2 -0.8,-0.9 -1.3,-1.3 -1.8,-1.3 -0.5,0 -0.8,0.3 -1.1,0.6 -0.3,0.3 -0.7,0.7 -1,1 -0.5,0.5 -1,1 -1.5,1.5 -21.6,20.5 -28.3,35.9 -27.4,63.3 L 276,336 c 0,0.3 -0.1,0.6 -0.3,0.8 -0.2,0.2 -0.5,0.3 -0.7,0.3 h -26.7 c -0.3,0 -0.6,-0.1 -0.8,-0.3 -0.2,-0.2 -0.3,-0.5 -0.3,-0.8 l 3.4,-68.1 c 2.6,-38.6 -14.3,-68 -48.7,-85.1 -2.1,-1 -3.4,-1.6 -4.3,-1.6 -2,0 -2,2.2 -2,5.5 v 44 c -0.3,3.6 -1,3.8 -1,3.8 0,0 -0.7,0 -2.1,-2.8 -6.2,-12.4 -17.4,-17.7 -27.4,-21.2 l -31.2,-11 c -0.9,-0.4 -1.6,-0.6 -2.2,-0.6 -0.6,0 -1.1,0.2 -1.4,0.6 -0.7,0.8 -0.7,2.2 -0.6,4 0,0.4 -0.1,0.8 -0.4,1.1 -0.3,0.3 -0.6,0.5 -1,0.5 -0.2,0 -0.3,0 -0.5,-0.1 L 16.5,166.6 16.3,166.5 h -0.1 c -0.3,0 -0.6,0.2 -0.8,0.5 -1.5,2.1 0.9,15.4 5.7,27.8 7,18.2 17.9,30.7 33.4,38.2 2.1,1 4.8,2.1 8,3.3 l -1.7,-0.4 c -2.5,-0.6 -4.8,-1.2 -6.3,-1.5 l -1,-0.2 c -1.6,-0.4 -2.7,-0.7 -3.5,-0.7 -0.3,0 -1,0 -1.4,0.6 -0.5,0.7 -0.3,1.6 0.5,3.7 l 6.5,17.6 c 7.2,18.2 14.2,24.3 26.2,30.5 7.1,3.7 16.8,5.8 22.6,7.1 l 0.8,0.2 c -2.8,-0.4 -5.6,-0.7 -6.9,-0.8 l -0.6,-0.1 c -0.8,-0.1 -1.5,-0.2 -1.9,-0.2 -0.5,0 -1.1,0.1 -1.5,0.6 -0.5,0.6 -0.2,1.6 0.3,3 l 6.1,14.4 c 6.3,14.6 14.8,23.2 28.4,28.8 0,0 2,0.8 2.5,1 -0.5,0 -1,0 -1.6,-0.1 -1,0 -1.7,-0.1 -2.4,-0.1 -1.3,0 -2.1,0.1 -2.6,0.7 -0.4,0.6 -0.2,1.4 0,2.2 1.1,3.8 2.5,8.6 4.5,13.2 3.1,7.4 15.5,31.6 43.9,31.6 4.7,0 5.6,0.5 6.4,1.4 23,46.7 69.6,75.7 121.6,75.7 50.8,0 96.9,-28.1 120.3,-73.2 0.2,-0.4 2.2,-3.9 9,-3.9 28.4,0 40.8,-24.2 43.9,-31.6 1.9,-4.6 3.4,-9.5 4.5,-13.2 0.2,-0.8 0.5,-1.6 0,-2.2 -0.4,-0.6 -1.3,-0.7 -2.6,-0.7 -0.6,0 -1.4,0 -2.4,0.1 -0.6,0 -1.2,0.1 -1.7,0.1 0.5,-0.2 2.5,-1 2.5,-1 13.6,-5.6 22.1,-14.2 28.4,-28.8 l 6.2,-14.5 c 0.5,-1.4 0.7,-2.3 0.3,-3 -0.4,-0.5 -1,-0.6 -1.5,-0.6 -0.5,0 -1.1,0.1 -1.9,0.2 l -0.6,0.1 c -1.4,0.1 -4.1,0.5 -6.9,0.8 l 0.8,-0.2 c 5.8,-1.3 15.5,-3.4 22.6,-7.1 12,-6.2 19,-12.4 26.2,-30.6 l 6.5,-17.6 c 0.8,-2.1 0.9,-3.1 0.5,-3.7 -0.4,-0.6 -1.2,-0.6 -1.4,-0.6 -0.8,0 -1.9,0.3 -3.5,0.7 l -1,0.2 c -1.5,0.3 -3.7,0.9 -6.3,1.5 l -1.8,0.4 c 3.2,-1.1 5.8,-2.2 8,-3.3 15.5,-7.5 26.5,-20 33.5,-38.1 4.8,-12.3 7.2,-25.6 5.7,-27.7 z M 336,389.5 h 41.9 c 0.2,0 0.2,0.1 0.3,0.2 0,0.1 0.1,0.2 0,0.3 -15.6,19.6 -37.8,32.5 -62.5,36.1 -0.2,0 -0.4,-0.2 -0.4,-0.3 0,-0.1 -0.1,-0.3 0.1,-0.5 8.1,-9.1 14.6,-21.3 17.8,-33.4 0.3,-1.5 1.5,-2.4 2.8,-2.4 z m -65.1,1.3 c 3.2,13 10,25.8 18.5,35.1 0.1,0.1 0.1,0.3 0.1,0.4 0,0.1 -0.1,0.2 -0.3,0.2 v 0 c -25.6,-3.2 -48.5,-16.1 -64.6,-36.4 -0.1,-0.1 -0.1,-0.3 0,-0.3 0,-0.1 0.1,-0.2 0.3,-0.2 h 44.5 c 0.6,-0.1 1.3,0.4 1.5,1.2 z"
   id="path4"
   inkscape:connector-curvature="0"
   style="fill:#5d4111" />
	<path
   class="st0"
   d="m 399.9,237.2 c 22.4,24.1 36.2,56.4 36.2,91.9 0,74.4 -60.3,134.8 -134.8,134.8 -74.4,0 -134.8,-60.3 -134.8,-134.8 0,-34.9 13.2,-66.7 35,-90.6 V 288 c 0,0.9 0.7,1.6 1.6,1.6 h 7.7 c -5.3,12.1 -8.2,25.4 -8.2,39.5 0,54.5 44.2,98.7 98.7,98.7 54.5,0 98.7,-44.2 98.7,-98.7 0,-14 -2.9,-27.4 -8.2,-39.5 h 6.5 c 0.9,0 1.6,-0.7 1.6,-1.6 z"
   id="path6"
   inkscape:connector-curvature="0"
   style="fill:#5d4111" />
	<g
   id="g42">
		<g
   id="g22">
			<g
   id="g20">
				<path
   class="st1"
   d="m 321,459 c -0.7,-1 -5,-19.8 -5,-28.9 -0.3,-1.7 -3.8,-2.5 -3.6,0.3 0.7,12.6 3.3,23.4 4.6,27.8 0.3,1 0.7,2.3 1.8,2.4 1.1,0.2 2.4,-0.9 2.2,-1.6 z"
   id="path8"
   inkscape:connector-curvature="0"
   style="fill:#a3742a" />
				<path
   class="st2"
   d="m 319.9,458.6 c -0.4,-0.9 -2.5,-0.2 -2,0.8 0.4,0.7 2.3,0 2,-0.8 z m -1.4,-3.6 c -0.7,-1.8 -2.8,-12.6 -3.8,-22.9 -0.2,-1.9 -2.1,-1.8 -2,0.1 0.8,11.1 2.8,20.1 3.9,23.2 0.4,1 2.2,0.1 1.9,-0.4 z"
   id="path10"
   inkscape:connector-curvature="0"
   style="fill:#cc9944" />
				<path
   class="st1"
   d="m 281.7,459 c 0.7,-1 5,-19.8 5,-28.9 0.3,-1.7 3.8,-2.5 3.6,0.3 -0.7,12.6 -3.3,23.4 -4.6,27.8 -0.3,1 -0.7,2.3 -1.8,2.4 -1.2,0.2 -2.4,-0.9 -2.2,-1.6 z"
   id="path12"
   inkscape:connector-curvature="0"
   style="fill:#a3742a" />
				<path
   class="st2"
   d="m 282.4,458.2 c 0.4,-0.9 2.5,0 1.9,0.9 -0.3,0.7 -2.2,-0.1 -1.9,-0.9 z"
   id="path14"
   inkscape:connector-curvature="0"
   style="fill:#cc9944" />
				<path
   class="st2"
   d="m 283.3,454.5 c 0.4,-1.5 2.7,-11 3.8,-22.9 0.2,-1.9 2,-1.5 2,0.1 -0.2,11.3 -2.8,20.7 -3.8,23.8 -0.5,1.1 -2.4,0.7 -2,-1 z"
   id="path16"
   inkscape:connector-curvature="0"
   style="fill:#cc9944" />
				<path
   class="st3"
   d="m 284.7,451.6 c 1,-4.7 2.1,-10.7 2.6,-16 0.2,-1.7 1.3,-1.4 1.2,0.2 -0.6,6.3 -1.7,12 -2.6,16.1 -0.4,1.4 -1.5,1.2 -1.2,-0.3 z"
   id="path18"
   inkscape:connector-curvature="0"
   style="fill:#fdd491" />
			</g>
		</g>
		<g
   id="g40">
			<g
   id="g38">
				<path
   class="st1"
   d="m 316.8,459.2 c -1.2,-3.6 -3.6,-10.1 -5.5,-25.6 -0.2,-1.4 -0.3,-2.2 -1.2,-2.1 -3.2,0 -3.4,-0.5 -4.3,8.4 -0.5,0 -6.8,0 -8.3,0 -1,-9.4 -0.8,-8.4 -3.6,-8.4 -1.1,-0.1 -1.5,0.2 -1.8,2.1 -1.9,14.2 -4.3,21.7 -5.5,25.5 -0.2,0.5 0,1 0.6,1.1 4.8,0.6 9.7,0.9 14.6,0.9 5,0 9.8,-0.3 14.6,-1 0.4,0 0.6,-0.3 0.4,-0.9 z"
   id="path24"
   inkscape:connector-curvature="0"
   style="fill:#a3742a" />
				<path
   class="st2"
   d="m 291.6,442.3 c -1.5,8 -1.3,7.5 -2.6,12.6 -0.4,1.4 -0.3,2.5 1.3,2.9 7.4,1.1 16.7,0.8 23.3,-0.2 0.8,-0.1 1.2,-1 0.8,-2.6 -0.8,-3.7 -1.2,-4.7 -2.6,-12.8 -0.3,-1.9 -1.5,-2 -2.8,-2 -5.1,0.3 -9.1,0.3 -14.4,0 -1.5,0 -2.6,0 -3,2.1 z"
   id="path26"
   inkscape:connector-curvature="0"
   style="fill:#cc9944" />
				<path
   class="st2"
   d="m 309.5,432.2 c -1.6,0.1 -1.2,4.4 0.4,4.4 1.2,0 0.7,-4.5 -0.4,-4.4 z"
   id="path28"
   inkscape:connector-curvature="0"
   style="fill:#cc9944" />
				<path
   class="st3"
   d="m 312.3,447.9 c -0.1,-1.2 -0.6,-2.6 -0.8,-3.9 -0.1,-0.7 -0.5,-0.9 -1.1,-0.9 -5.5,0.5 -11.4,0.4 -17,-0.1 -0.6,-0.1 -1.1,0 -1.3,1.1 -0.5,1.9 -0.3,1.6 -0.7,3.3 -0.2,1.1 0.3,1.6 0.8,1.6 6.8,0.7 13.5,0.9 19.3,0 0.6,-0.1 0.8,-0.4 0.8,-1.1 z"
   id="path30"
   inkscape:connector-curvature="0"
   style="fill:#fdd491" />
				<path
   class="st3"
   d="m 312.1,450.6 c -6.5,0.6 -13,0.7 -20.8,-0.1 -0.6,-0.1 -0.9,1.9 -0.4,2 8.2,1 13.9,0.8 21.3,0.1 1.1,-0.1 0.6,-2 -0.1,-2 z"
   id="path32"
   inkscape:connector-curvature="0"
   style="fill:#fdd491" />
				<path
   class="st1"
   d="m 300.1,437.9 h 3.6 c 2.5,0 2.5,-2.1 0,-2.1 H 300 c -0.6,0 -0.6,2.1 0.1,2.1 z"
   id="path34"
   inkscape:connector-curvature="0"
   style="fill:#a3742a" />
				<path
   class="st2"
   d="m 295,432.2 c -1.6,0.1 -0.7,4.1 0.3,4.1 1.1,0 0.9,-4.1 -0.3,-4.1 z"
   id="path36"
   inkscape:connector-curvature="0"
   style="fill:#cc9944" />
			</g>
		</g>
	</g>
	<g
   id="g124">
		<g
   id="g84">
			<g
   id="g80">
				<g
   id="g70">
					<g
   id="g56">
						<g
   id="g46">
							<path
   class="st4"
   d="m 228.8,417.5 c 5.4,13.5 10.9,17.9 15.1,17.9 l 4.9,-0.1 c 3,-0.1 3.4,-1.1 -6.3,-7 11.3,5.7 9.9,3 8.9,1.1 l -2,-4.2 c -2.2,-3.9 -5.2,-5.7 -20.6,-7.7 z"
   id="path44"
   inkscape:connector-curvature="0"
   style="clip-rule:evenodd;fill:#a3742a;fill-rule:evenodd" />
						</g>
						<g
   id="g50">
							<path
   class="st4"
   d="m 274.5,440.8 c 7.2,1.4 8.5,1.2 8.5,-2.9 0,-3.3 -8,-0.1 -11.5,2.1 2.2,3.7 8.4,11.8 9.5,8.6 1.4,-4.1 0.7,-5.3 -6.5,-7.8 z"
   id="path48"
   inkscape:connector-curvature="0"
   style="clip-rule:evenodd;fill:#a3742a;fill-rule:evenodd" />
						</g>
						<path
   class="st4"
   d="m 229,438.7 23.7,-1.7 c 4.4,-0.1 6.4,0.4 10.3,1.8 4.2,1.5 4.6,1.4 9.9,7.7 1.8,2.1 -2.3,2 -8.8,1.1 1.9,0.5 9.2,2.3 12.2,3.1 5.1,1.3 0.3,5.9 -3.7,5.6 -5.8,-0.3 -24.4,-6.4 -43.6,-17.6 z"
   id="path52"
   inkscape:connector-curvature="0"
   style="clip-rule:evenodd;fill:#a3742a;fill-rule:evenodd" />
						<path
   class="st4"
   d="m 247.2,416.3 c 13.7,8.1 24.8,11.4 33.2,13 3.8,0.8 3.1,5.2 -0.9,4.7 -1.9,-0.3 -5.7,-1.1 -11.4,-2.6 6.8,3 7.3,3.7 3.7,5.1 -4.6,1.8 -6.1,2 -10.1,0.5 -6,-1.8 -8.1,-5.5 -14.5,-20.7 z"
   id="path54"
   inkscape:connector-curvature="0"
   style="clip-rule:evenodd;fill:#a3742a;fill-rule:evenodd" />
					</g>
					<path
   class="st5"
   d="m 230.1,439 c 11.8,6.2 25.9,11.9 40.7,14.6 5.3,0.5 9.2,-1.4 4,-2.6 -17,-4.7 -28.5,-7.5 -44.7,-12 z"
   id="path58"
   inkscape:connector-curvature="0"
   style="clip-rule:evenodd;fill:#cc9944;fill-rule:evenodd" />
					<path
   class="st2"
   d="m 250,421.4 c 6.7,10 10.5,11.1 16.3,13.3 4,1.6 0.2,2.6 -1.6,2.1 -7.4,-1.7 -9.5,-3.8 -14.7,-15.4 z m 28.2,11.4 c -7.8,-1.4 -23.5,-4.3 -29.5,-14.7 13.2,7.4 25.2,10.7 30.2,12 2.3,0.5 3,3.4 -0.7,2.7 z"
   id="path60"
   inkscape:connector-curvature="0"
   style="fill:#cc9944" />
					<path
   class="st3"
   d="m 273.8,428.6 c 4.6,1.5 3.8,3.1 1.1,2.3 -11.3,-3.1 -21.5,-8.1 -26.1,-12.8 9.8,5.4 18.9,8.7 25,10.5 z"
   id="path62"
   inkscape:connector-curvature="0"
   style="fill:#fdd491" />
					<path
   class="st5"
   d="m 272.3,440.7 c 1.6,2.5 3.7,4.8 5.8,6.6 2.6,2.3 3.4,-1.8 1.3,-3.1 -2.3,-1.4 -6.2,-3.1 -7.1,-3.5 z"
   id="path64"
   inkscape:connector-curvature="0"
   style="clip-rule:evenodd;fill:#cc9944;fill-rule:evenodd" />
					<path
   class="st5"
   d="m 272.1,440 c 3.6,-2.1 7.8,-3.2 9.5,-3.2 0.8,0 0.8,1.6 -0.1,1.6 -3.3,-0.2 -6.7,0.8 -9.4,1.6 z"
   id="path66"
   inkscape:connector-curvature="0"
   style="clip-rule:evenodd;fill:#cc9944;fill-rule:evenodd" />
					<path
   class="st2"
   d="m 230,419.2 c 5.9,5.7 13.3,10.4 17.6,13 3.4,2.1 -5.5,2.4 -7.2,1.5 -3.6,-2 -7.1,-6.8 -10.4,-14.5 z"
   id="path68"
   inkscape:connector-curvature="0"
   style="fill:#cc9944" />
				</g>
				<path
   class="st2"
   d="m 251.3,438 c 1.6,0 3.2,0 4.7,0.1 -1.4,-0.1 -2.8,-0.1 -4.7,-0.1 z m -20.6,0.9 19.9,-1 h 0.1 0.1 0.1 0.1 0.1 0.1 0.1 0.1 0.1 0.1 c 1.9,0 3.3,0 4.7,0.1 3.4,0.3 9.9,2.5 11.5,3.8 1.5,1.4 2.6,3 -0.4,1.9 -12.2,-4.2 -13.2,-3.6 -36.7,-4.8 z"
   id="path72"
   inkscape:connector-curvature="0"
   style="fill:#cc9944" />
				<path
   class="st3"
   d="m 230.1,439 c 15,5.7 28.8,9.6 39.6,12.2 7.5,1.5 3.4,2.7 -1.5,1.9 -13.8,-2.9 -26.9,-8.3 -38.1,-14.1 z"
   id="path74"
   inkscape:connector-curvature="0"
   style="fill:#fdd491" />
				<path
   class="st3"
   d="m 278.3,445.8 c -1.9,-1.4 -5.1,-4.1 -6,-5 1.6,2.5 3.6,4.7 5.6,6.5 1.6,1 2.1,-0.2 0.4,-1.5 z"
   id="path76"
   inkscape:connector-curvature="0"
   style="fill:#fdd491" />
				<path
   class="st2"
   d="m 245.8,422.4 c 3.6,2.8 3.4,4.9 2.1,4 -7,-4.7 -10.2,-4.9 -17.7,-8.1 8.6,1.1 13.5,2.4 15.6,4.1 z"
   id="path78"
   inkscape:connector-curvature="0"
   style="fill:#cc9944" />
			</g>
			<path
   class="st3"
   d="m 230,419.2 c 3.6,5.9 7.2,10.1 10.9,12.7 2.3,1.9 -0.5,1.8 -1.8,0.9 -3.2,-2.3 -6.2,-6.9 -9.1,-13.6 z"
   id="path82"
   inkscape:connector-curvature="0"
   style="fill:#fdd491" />
		</g>
		<g
   id="g110">
			<path
   class="st1"
   d="m 205,392 c -1.9,-6.8 8.4,-0.1 8.8,3.8 l 0.5,4.5 c 0.2,1.8 -0.9,3.8 -8.6,-6 5.7,8.2 7.1,10.4 4.7,9.3 l -5.1,-2 c -2.5,-0.8 -3.8,-2.7 -4.7,-5.4 -1.5,-4.1 -1.2,-9.8 4.4,-4.2 z"
   id="path86"
   inkscape:connector-curvature="0"
   style="fill:#a3742a" />
			<path
   class="st1"
   d="m 189.3,398.5 22.1,7.5 c 4.4,1.6 5,1.8 8.7,5.2 4.5,4.2 3.9,4.4 6.8,12.2 1,2.6 0.1,1.9 -7.5,-2.7 1.6,1.3 7.3,5.8 9.8,7.8 7.2,5.9 5.5,11.5 -7,3.7 -2.5,-1.7 -17,-12.2 -32.9,-33.7 z"
   id="path88"
   inkscape:connector-curvature="0"
   style="fill:#a3742a" />
			<path
   class="st1"
   d="m 215.8,391.5 c 0,-2.2 2.9,-3.2 4.2,-1.4 1.3,1.7 2.5,3.4 3.7,4.9 1.2,1.5 5,6.1 6.9,7.9 3.9,4.1 7,6.8 8.6,8.3 5.4,5.4 5.6,8.1 0.4,4.6 -1.5,-1 -9,-5.9 -12.3,-8.4 7.9,8.5 7.1,7.9 3.6,7.4 -5.8,-0.8 -7.1,-1.4 -10,-4.4 -4.5,-4.1 -5.1,-7.6 -5.1,-18.9 z"
   id="path90"
   inkscape:connector-curvature="0"
   style="fill:#a3742a" />
			<path
   class="st2"
   d="m 201.8,392.5 c -0.8,-2.7 -1.5,-1.2 -1.1,1.1 0.6,2.9 1.5,4.8 2.6,6.3 0.8,1.1 4.7,2.1 2.9,0.2 -1.7,-1.9 -3.6,-5 -4.4,-7.6 z"
   id="path92"
   inkscape:connector-curvature="0"
   style="fill:#cc9944" />
			<path
   class="st2"
   d="m 212.7,396.6 c -0.4,-3.4 -3.8,-5 -5.3,-5.3 -1.3,0 1.7,5.3 4.1,8 1,1.1 1.7,1.6 1.2,-2.7 z"
   id="path94"
   inkscape:connector-curvature="0"
   style="fill:#cc9944" />
			<path
   class="st5"
   d="m 190.6,399.7 c 8.6,11.2 21.9,23.5 35.7,30.9 3.1,1.6 6.2,1.3 2.7,-1.6 -12.8,-10.6 -31.5,-24.6 -38.4,-29.3 z"
   id="path96"
   inkscape:connector-curvature="0"
   style="clip-rule:evenodd;fill:#cc9944;fill-rule:evenodd" />
			<path
   class="st2"
   d="m 190.2,399.2 18.8,6.7 c 5.3,2 9.8,4.3 13.3,8.4 1.8,2.2 2.6,5.2 -0.1,3 -10.4,-8.3 -18.5,-10.8 -32,-18.1 z"
   id="path98"
   inkscape:connector-curvature="0"
   style="fill:#cc9944" />
			<g
   id="g104">
				<path
   class="st2"
   d="m 216.2,392.8 c 0,-0.5 0.7,-0.5 0.7,-0.1 2.3,13.1 4.4,14.2 9,18.6 2,1.9 -1.3,1.3 -2,0.6 -4.4,-3.6 -7.4,-5.4 -7.7,-19.1 z"
   id="path100"
   inkscape:connector-curvature="0"
   style="fill:#cc9944" />
				<path
   class="st2"
   d="m 236.1,412.4 c -11,-7.3 -16.4,-11.3 -18,-21.3 -0.1,-0.7 0.8,-1.2 1.3,-0.6 1,1.3 1.9,2.5 3.1,4 1.8,2.4 5,6.9 8.7,10.1 4,3.7 6,5.7 7.8,7.3 3.4,2.8 2.4,4.1 -2.9,0.5 z"
   id="path102"
   inkscape:connector-curvature="0"
   style="fill:#cc9944" />
			</g>
			<path
   class="st3"
   d="m 190.6,399.7 c 11.7,12.3 27.1,22.7 35.7,28.5 4.2,2.6 0.4,2.6 -1.6,1.6 -13.2,-7.5 -25.9,-19.4 -34.1,-30.1 z"
   id="path106"
   inkscape:connector-curvature="0"
   style="fill:#fdd491" />
			<path
   class="st3"
   d="m 238,410.9 c 2.7,2.4 1.1,1.9 -1.4,0.1 -2.5,-1.7 -4.8,-3.9 -6.5,-5.9 -0.8,-0.9 -0.5,-1.7 1.4,-0.3 3,2.9 4.9,4.8 6.5,6.1 z"
   id="path108"
   inkscape:connector-curvature="0"
   style="fill:#fdd491" />
		</g>
		<g
   id="g122">
			<path
   class="st1"
   d="m 188.9,381.7 c 5.3,7 6.5,8.5 6.6,5.8 0.3,-7.9 0,-8.6 -2.2,-13.6 -1.7,-3.8 -2.7,-5.6 -5.7,-8.8 L 170.2,349 c 6,25.9 14.4,40.5 16.4,42.8 4.9,5.6 12.9,8.5 8.5,0.6 -1.6,-2.7 -5.2,-8.9 -6.2,-10.7 z"
   id="path112"
   inkscape:connector-curvature="0"
   style="fill:#a3742a" />
			<g
   id="g118">
				<path
   class="st5"
   d="m 170.9,350.7 c 3.4,13.7 10.9,30 20.9,41.9 2.2,2.6 5.3,3.6 3.2,-0.3 -7.9,-14.2 -19.7,-34.3 -24.1,-41.6 z"
   id="path114"
   inkscape:connector-curvature="0"
   style="clip-rule:evenodd;fill:#cc9944;fill-rule:evenodd" />
				<path
   class="st2"
   d="m 170.7,350.1 14.6,14 c 5,4.9 6.3,8.1 8.2,12.4 1.1,2.6 0.1,5.6 -1.2,2.6 -5.9,-13.1 -8.1,-12.5 -21.6,-29 z"
   id="path116"
   inkscape:connector-curvature="0"
   style="fill:#cc9944" />
			</g>
			<path
   class="st3"
   d="m 192.7,390.5 c 3,3.9 -0.6,2.4 -2.1,0.7 -9.5,-11.7 -16.5,-27.4 -19.8,-40.5 5.9,16 16.2,31.4 21.9,39.8 z"
   id="path120"
   inkscape:connector-curvature="0"
   style="fill:#fdd491" />
		</g>
	</g>
	<g
   id="g168">
		<path
   class="st5"
   d="M 301.5,143.6 V 431 c 12.7,-8.3 24.7,-27.7 28,-46.8 h 74.3 V 185.6 c -33.5,16.6 -48.7,44.9 -46.3,80.9 l 3.7,73.8 h -38 l 5.3,-134.9 c 0.8,-24.8 -4.5,-40.8 -27,-61.8 z"
   id="path126"
   inkscape:connector-curvature="0"
   style="clip-rule:evenodd;fill:#cc9944;fill-rule:evenodd" />
		<path
   class="st1"
   d="m 301.5,431 c 14.5,-11.2 22.7,-34.1 24.3,-49 h 62.7 c 7.2,0 11.7,0.5 15.2,2.2 -1.4,-3.6 -2.2,-6.5 -2.2,-14.2 V 211.2 c 0,-9.1 1,-18.6 2.2,-25.5 -12.4,7.3 -45,28 -42.7,79.1 l 2.2,77.8 h -42.4 l 3.8,-133.3 c 0.8,-22.8 -2.7,-45.4 -23.2,-65.7 2.2,7.6 2.5,30.7 2.5,39.9 v 222.1 c 0.1,13.8 -0.4,18.3 -2.4,25.4 z"
   id="path128"
   inkscape:connector-curvature="0"
   style="fill:#a3742a" />
		<path
   class="st2"
   d="m 403.8,384.2 c -2.6,-1.5 -8,-6.3 -11.2,-9.5 -3.7,-3.7 -3.5,-3.5 -7.5,-7.5 -3.7,-3.7 -4.2,-3.7 -9.3,-3.7 H 304 v -1.5 0 l 16.9,-19.6 h 42.4 l -2.2,-77.8 c -2.3,-51.1 30.3,-71.8 42.7,-79.1 -16.7,23.6 -21.7,48.8 -21.7,78.9 v 91.7 c 0,4.3 0,4.6 4,8.7 4.2,4.2 4.3,4.4 8.3,8.4 3.6,3.6 7.9,8.4 9.4,11 z"
   id="path130"
   inkscape:connector-curvature="0"
   style="fill:#cc9944" />
		<path
   class="st3"
   d="m 302.4,183.4 v 222.1 c 0,6.2 -0.4,16.8 -0.9,25.5 -12.7,-8.3 -24.7,-27.7 -28,-46.8 H 199.2 V 185.6 c 33.5,16.6 48.7,44.9 46.3,80.9 l -3.7,73.8 h 38 l -5.3,-134.9 c -0.8,-24.9 4.5,-40.8 27,-61.9 0.9,6.8 0.9,30.9 0.9,39.9 z"
   id="path132"
   inkscape:connector-curvature="0"
   style="fill:#fdd491" />
		<path
   class="st2"
   d="M 301.5,431 C 287,419.8 278.8,396.9 277.2,382 h -62.7 c -6.5,0 -10.9,0.4 -15.2,2.2 1.7,-3.3 2.2,-7.3 2.2,-15 v -158 c 0,-9.1 -1,-18.6 -2.2,-25.5 12.4,7.3 45,28 42.7,79.1 l -2.2,77.8 h 42.4 l -3.8,-133.3 c -0.8,-22.8 2.7,-45.4 23.2,-65.7 -3.6,12.8 -4.7,30.7 -4.7,39.9 l 1.9,163.1 c 0,7 1,12.3 2.8,15.6 -1.4,3.2 -2.8,8.1 -2.8,15.1 l -0.7,28.3 c 0,14.2 1,16.6 3.4,25.4 z"
   id="path134"
   inkscape:connector-curvature="0"
   style="fill:#cc9944" />
		<path
   class="st1"
   d="m 220.3,363.6 h 79.8 L 277.2,382 h -62.7 c -6.5,0 -10.9,0.4 -15.2,2.2 z"
   id="path136"
   inkscape:connector-curvature="0"
   style="fill:#a3742a" />
		<path
   class="st1"
   d="m 220.9,264.5 v 97.6 l 18.8,-19.6 2.2,-77.8 c 2.3,-51.1 -30.3,-71.8 -42.7,-79.1 16.7,23.7 21.7,48.9 21.7,78.9 z"
   id="path138"
   inkscape:connector-curvature="0"
   style="fill:#a3742a" />
		<path
   class="st2"
   d="m 199.2,185.6 c 33.5,16.6 48.7,44.9 46.3,80.9 l -3.7,73.8 -2.1,2 2.2,-77.6 c 2.3,-51.1 -30.3,-71.8 -42.7,-79.1 z"
   id="path140"
   inkscape:connector-curvature="0"
   style="fill:#cc9944" />
		<path
   class="st3"
   d="m 403.8,185.6 c -33.5,16.6 -48.7,44.9 -46.3,80.9 l 3.7,73.8 2.1,2.2 -2.2,-77.8 c -2.3,-51.1 30.4,-71.8 42.7,-79.1 z"
   id="path142"
   inkscape:connector-curvature="0"
   style="fill:#fdd491" />
		<path
   class="st5"
   d="m 199.2,384.2 v 0 c 4.3,-1.8 8.8,-2.2 15.2,-2.2 h 62.7 l -3.7,2.2 z"
   id="path144"
   inkscape:connector-curvature="0"
   style="clip-rule:evenodd;fill:#cc9944;fill-rule:evenodd" />
		<polygon
   class="st6"
   points="363.4,342.5 361.2,340.3 323.2,340.3 320.9,342.5 "
   id="polygon146"
   style="clip-rule:evenodd;fill:#fdd491;fill-rule:evenodd" />
		<path
   class="st7"
   d="m 220.9,362.1 h 80.7 c -18.5,-18.5 -16.1,-17.3 -21.5,-17.3 h -28.9 c -4,0 -3.9,0 -6.6,1.7 -4.6,2.9 -14.7,9.4 -23.7,15.6 z"
   id="path148"
   inkscape:connector-curvature="0"
   style="fill:#dfb560" />
		<path
   class="st7"
   d="m 304.7,362.1 h 75.6 c -17.6,-17.5 -17.6,-17.3 -23,-17.3 h -21.4 c -6.4,0 -6.4,0.1 -31.2,17.3 z"
   id="path150"
   inkscape:connector-curvature="0"
   style="fill:#dfb560" />
		<path
   class="st7"
   d="m 301.5,431 c -10.8,-9.7 -18.3,-33.1 -19.6,-40 -0.4,-2 -0.7,-2.5 0.4,-4.2 l 19.2,-24.7 c -1.4,3.2 -2.6,7.6 -2.8,15.1 l -0.7,28.3 c 0.1,14.3 1.1,16.7 3.5,25.5 z"
   id="path152"
   inkscape:connector-curvature="0"
   style="fill:#dfb560" />
		<path
   class="st7"
   d="M 301.5,362.1 292,345.8 c -3.1,-4.9 -3.3,-6.4 -3.8,-13.8 l -5.3,-122.9 c -2.7,-29.4 5.3,-51.6 18.6,-65.6 -3.4,13.6 -4.4,30.7 -4.4,39.9 l 1.6,163.1 c 0,7 1,12.3 2.8,15.6 z"
   id="path154"
   inkscape:connector-curvature="0"
   style="fill:#dfb560" />
		<path
   class="st8"
   d="m 199.2,185.6 c 6.7,15.8 7.5,51.5 7.5,71.4 v 109.6 c 0,7 0.1,6.9 -5.8,15.9 l 18.3,-20.4 V 259.9 c -0.1,-30.4 -7.1,-53.9 -20,-74.3 z"
   id="path156"
   inkscape:connector-curvature="0"
   style="clip-rule:evenodd;fill:#dfb560;fill-rule:evenodd" />
		<path
   class="st6"
   d="m 199.2,185.6 c 14.1,28.4 16.6,57 16.6,88.4 v 87.5 c 0,3.1 -1.8,6.3 -1.8,6.3 l 5.2,-5.7 V 259.9 c -0.1,-30.4 -7.1,-53.9 -20,-74.3 z"
   id="path158"
   inkscape:connector-curvature="0"
   style="clip-rule:evenodd;fill:#fdd491;fill-rule:evenodd" />
		<path
   class="st7"
   d="M 380.3,259.2 V 353 c 0,3.8 0.1,4.7 0.4,7.4 l -8.2,-12.5 c -3.1,-4.8 -3.4,-5.3 -3.5,-12.4 l -3.3,-73.1 c -2.3,-47.1 25.7,-69.5 38.1,-76.7 -18.2,21.2 -23.5,43.5 -23.5,73.5 z"
   id="path160"
   inkscape:connector-curvature="0"
   style="fill:#dfb560" />
		<path
   class="st3"
   d="m 380.3,264.5 v 75.9 c 0,9.6 -0.1,16 0.4,20 -3.8,-6.6 -4.1,-15.7 -4.1,-21.2 v -77.9 c 0,-48.1 16.8,-64.5 27.2,-75.7 -18.2,21.1 -23.5,48.9 -23.5,78.9 z"
   id="path162"
   inkscape:connector-curvature="0"
   style="fill:#fdd491" />
		<path
   class="st3"
   d="m 301.5,362.1 h -80.7 c 15.2,-2.8 15.2,-3 25.9,-3 h 42.5 c 4.9,0.1 5.2,0.1 12.3,3 z"
   id="path164"
   inkscape:connector-curvature="0"
   style="fill:#fdd491" />
		<path
   class="st3"
   d="m 380.3,362.1 h -75.6 c 13.9,-2.8 14.5,-3 25.4,-3 h 37.7 c 4.8,0.1 5.6,0.1 12.5,3 z"
   id="path166"
   inkscape:connector-curvature="0"
   style="fill:#fdd491" />
	</g>
	<path
   class="st4"
   d="M 125.3,206.9 18.2,170.1 c -1,-0.2 1.6,16 8.2,29.1 6.6,13 16.6,26.8 43.1,35.1 l 43.7,13.5 c -4.5,-4.9 -6.3,-9 -7.8,-13.7 l -3.5,-10.8 c -2.9,-9.7 -4.6,-10.2 -14.1,-14.1 0,0 -35.4,-13.1 -44.3,-17.2 -10.2,-4.7 -12.9,-8.5 -11.4,-7.6 5,2.6 15.8,7.2 35.9,13.8 l 58.5,19.4 c 4.9,1.6 10,4.5 7.3,-2.8 -1.5,-4.2 -5.3,-6.9 -8.5,-7.9 z"
   id="path170"
   inkscape:connector-curvature="0"
   style="clip-rule:evenodd;fill:#a3742a;fill-rule:evenodd" />
	<path
   class="st4"
   d="m 52,237.1 7.7,19.5 c 8.3,19.5 20.7,27.5 41,32 l 37.9,8.6 c -3.8,-4.2 -5.1,-7.1 -6.5,-11.1 l -2.7,-8.1 c -2.3,-6.8 -2.6,-11 -16.8,-14 l -14.4,-3.3 c -10.3,-2.4 -20.5,-5.1 -29.7,-10.5 -3.6,-2.2 -7.2,-5.3 -5.5,-4.3 11,6.7 23.6,9 35.8,11.8 l 21,4.5 c 5.8,1.3 6,0.7 1.9,-4.6 -4.2,-5.5 -7.4,-6 -16.2,-8.1 z"
   id="path172"
   inkscape:connector-curvature="0"
   style="clip-rule:evenodd;fill:#a3742a;fill-rule:evenodd" />
	<path
   class="st4"
   d="m 136.5,300.3 -38.3,-5.4 6.8,15.8 c 7,16.1 18.8,24.8 39.3,28.3 l 15.9,2.5 c -2.3,-3 -3.2,-5.4 -4.5,-9.4 -4,-11.4 -6.8,-18.4 -19.2,-20.2 -20.5,-3.1 -25.2,-7.3 -27.1,-8.5 5.4,2.4 15,4.2 25.3,5.5 l 9.5,1.3 c 5.2,0.8 6.5,0 3.1,-3.8 -0.4,-0.4 -0.8,-0.8 -1.1,-1.2 -3.3,-3.5 -4.4,-4.1 -9.7,-4.9 z"
   id="path174"
   inkscape:connector-curvature="0"
   style="clip-rule:evenodd;fill:#a3742a;fill-rule:evenodd" />
	<path
   class="st4"
   d="m 150.2,343.7 -21.2,-1 4.1,11.5 c 6.2,13.8 16.8,27.8 38.6,28.2 4.3,0.1 4.7,1.4 -0.1,-13.4 -1.5,-4.6 -4.8,-11.1 -13.4,-12.6 -14.4,-2.6 -17.5,-4.7 -18.7,-6.1 2.9,1.3 8.4,2 19.3,3.2 4.9,0.5 6.2,0.7 4.6,-1.7 -3.2,-4.8 -6,-7.2 -13.2,-8.1 z"
   id="path176"
   inkscape:connector-curvature="0"
   style="clip-rule:evenodd;fill:#a3742a;fill-rule:evenodd" />
	<path
   class="st4"
   d="m 146.8,266.9 25.6,6.6 c 13.2,3.2 14.7,5.1 15.8,2.9 4.3,-9.8 -9.2,-25.1 -25.3,-30.5 0,0 -18.6,-6.2 -29.2,-9.9 -13.5,-4.7 -19.8,-10.9 -22.4,-13.8 5.8,4.3 11.6,7.2 25.1,12.2 5.9,2 9.6,2.9 4.9,-4.2 -2.8,-4.2 -5,-6.4 -8.3,-7.2 l -30.9,-10.2 6.7,20.1 c 5.1,15.4 14.2,28.3 38,34 z"
   id="path178"
   inkscape:connector-curvature="0"
   style="clip-rule:evenodd;fill:#a3742a;fill-rule:evenodd" />
	<path
   class="st4"
   d="m 193.5,268.9 c 0.2,0.8 1.5,0.7 1.5,-0.2 v -9.5 c 0,-26.6 -10.5,-38.5 -32.9,-46.3 l -28.6,-10.3 c -1,-0.5 1.4,8.8 3.7,15.8 5.5,17.2 15.7,20.1 28.7,24.3 3.6,1.2 22.1,7.5 27.6,26.2 z"
   id="path180"
   inkscape:connector-curvature="0"
   style="clip-rule:evenodd;fill:#a3742a;fill-rule:evenodd" />
	<path
   class="st2"
   d="m 186.7,253.1 c 2.1,2.8 3.1,1.7 1.3,-1.2 -0.6,-1.2 -2.4,-0.3 -1.3,1.2 z"
   id="path182"
   inkscape:connector-curvature="0"
   style="fill:#cc9944" />
	<path
   class="st2"
   d="m 136,204.7 c -2,-0.8 -1.9,-0.6 -1.7,0.4 5.5,24.9 10.2,28.1 30.1,34.6 l 7.4,2.5 c 6.4,2.5 9.4,5 12.1,7.4 1.8,1.3 3,-0.1 1.6,-1.8 -4,-4.9 -6.3,-5 -6.5,-6.7 11.2,5.8 10.4,-3.1 5.4,-11 -4.2,-6.6 -10.6,-11.5 -22.2,-16 z"
   id="path184"
   inkscape:connector-curvature="0"
   style="fill:#cc9944" />
	<path
   class="st2"
   d="M 108.6,203.8 C 60.7,186.7 31.6,176.2 19,171.1 c 0.8,9.5 5.9,22.5 8.9,28 8.2,15.1 18.2,25.8 44.2,34 l 35.2,11.3 c 1.7,0.7 0.6,-3.5 -2.2,-5.4 -2.9,-2 -4.9,-2.1 -7.2,-9.9 -2.7,-9.3 -6.4,-11.9 -16.4,-15.4 0,0 -16.9,-6 -28.1,-10.7 -17.2,-7.1 -21.7,-14.7 -25.7,-22.3 5,3.2 13.8,7.2 40.9,16.1 l 61,20.3 c 3,1 2.4,-0.8 0.7,-2.8 -2.5,-2.9 -8,-5.6 -21.7,-10.5 z"
   id="path186"
   inkscape:connector-curvature="0"
   style="fill:#cc9944" />
	<path
   class="st2"
   d="m 126.7,223.8 c -13.4,-5.3 -20.6,-8.3 -22.8,-9.6 l 5.8,18 c 4.9,15 14.1,27.7 37.4,33.3 l 25.6,6.6 c 3.3,0.9 3.4,-0.6 3.4,-2.6 0.2,-10.1 -8,-14.1 -35.3,-22.8 -26.4,-8.5 -30.8,-26.4 -30.9,-26.4 5.5,4.8 15.3,9.2 31,15.1 2.4,0.6 -0.5,-6.3 -14.2,-11.6 z"
   id="path188"
   inkscape:connector-curvature="0"
   style="fill:#cc9944" />
	<path
   class="st2"
   d="M 106.6,252.9 C 79.8,246.1 63.2,241.8 53.8,238.1 l 6.8,16.7 c 8.1,18.8 20.5,27.8 40.5,32.3 l 32.8,7.3 c 0,0 -0.4,-2 -2.4,-3.6 -4.6,-3.6 -4.9,-4.2 -7.6,-9.3 -6.3,-11.7 -10.6,-13.7 -23.8,-16.5 l -5,-1.2 c -18.7,-4.1 -27.9,-10.5 -35.3,-19.2 -1.4,-1.6 -3.6,-4.3 -1.9,-3 11.7,8.8 25,11.4 38.7,14.6 l 24.7,5.5 c 6.2,1.5 -4,-6.1 -14.7,-8.8 z"
   id="path190"
   inkscape:connector-curvature="0"
   style="fill:#cc9944" />
	<path
   class="st2"
   d="m 121.9,300.7 c -9.3,-1.7 -16.6,-3.3 -22.1,-4.8 l 6.4,14.2 c 6.8,15.4 17.6,23.3 37.7,26.8 l 9.6,1.7 c 3,0.4 -0.4,-3.3 -2.8,-4 -5.1,-1.4 -4,-9.6 -18.9,-15.3 -16.5,-6.4 -21.1,-11.6 -25.5,-18.1 5,3.3 15.8,5.2 28.2,6.7 l 9.4,1.3 c 5.2,1.1 0.9,-3.8 -22,-8.5 z"
   id="path192"
   inkscape:connector-curvature="0"
   style="fill:#cc9944" />
	<path
   class="st2"
   d="m 137.3,344.6 -7.2,-1.1 4.2,10 c 5,11 12.8,21.7 27.1,25.7 2.9,0.8 7.7,1.3 10,1.3 0.6,0 -5,-10.1 -10.1,-12.9 -14.3,-8.1 -20.2,-9.2 -25.7,-20 3.3,2.1 11.8,4.1 21.1,4.3 2.8,0.2 -2.6,-4.6 -19.4,-7.3 z"
   id="path194"
   inkscape:connector-curvature="0"
   style="fill:#cc9944" />
	<path
   class="st7"
   d="m 180.7,233.6 c 0.6,-6.9 -7.5,-14 -18.2,-18.3 -26.3,-10.6 -24.2,-10.9 -19,3.1 1.5,3.9 0.4,2.8 -1.8,-1.2 -1.4,-2.5 -2.7,-6.6 -4.1,-10.2 -0.6,-1.5 -2.8,-2.2 -2.5,-0.6 3.8,20 11,26.8 23.2,30.3 5.8,1.7 10.2,3.2 13.2,4.5 7.3,3 4.2,-1.2 -3.6,-4.6 -1.9,-0.8 -4.6,-3.1 -2.6,-2.4 10.4,3.7 15.1,3.1 15.4,-0.6 z"
   id="path196"
   inkscape:connector-curvature="0"
   style="fill:#dfb560" />
	<path
   class="st8"
   d="m 20.4,175.6 c 4.4,22.2 15,35.2 23.2,42 12.8,10.5 24.6,13.5 59,24.7 1.7,0.5 -1.6,-4.1 -4.4,-5.3 C 88.9,232.9 94.3,228 82,223.1 71.1,218.8 64.2,216.1 56.8,213 26.2,200.2 19.7,171.5 20.4,175.6 Z"
   id="path198"
   inkscape:connector-curvature="0"
   style="clip-rule:evenodd;fill:#dfb560;fill-rule:evenodd" />
	<path
   class="st3"
   d="m 91.8,236.4 c 0.1,-0.5 -0.7,-1.1 -1.9,-1.5 -1.2,-0.4 -2.2,-0.3 -2.3,0.2 -0.1,0.5 0.7,1.1 1.9,1.5 1.1,0.3 2.1,0.2 2.3,-0.2 z M 27.3,194.7 c 11.8,23.5 23.7,29.7 55.9,40.2 1.7,0.5 3.6,-0.9 -0.2,-2.4 -4.3,-1.7 -3.4,-4.1 -6.1,-5.2 -9.8,-4.1 -17,-7.1 -23.2,-10.5 C 36.4,207 30.6,197.6 26,188.9 c -4,-7.4 -3.6,-4 1.3,5.8 z"
   id="path200"
   inkscape:connector-curvature="0"
   style="fill:#fdd491" />
	<path
   class="st3"
   d="M 118.1,209.7 60.3,189.2 C 47.5,184.9 28.4,177 20.9,173 c -1.5,-0.8 1.3,1.9 3.1,3.5 6.5,5.4 14.8,9.3 22.3,11.8 l 80.8,27 c 7.3,2.5 -1.1,-3 -9,-5.6 z"
   id="path202"
   inkscape:connector-curvature="0"
   style="fill:#fdd491" />
	<path
   class="st3"
   d="m 177,231.2 c 0.4,-3.2 -2.1,-9.8 -14.6,-15 -5.9,-2.5 -12,-5.1 -17.4,-7.2 -4.8,-1.8 -3.7,1 -0.8,2.3 9,4.1 9.3,10.5 17.1,16.7 7.6,6 15.3,6.5 15.7,3.2 z m -40.5,-19.6 c 5.5,18.7 11,21.1 29.9,26.8 2.7,0.8 1.9,-1.3 -0.6,-2.2 -14.9,-5.8 -22.3,-9.9 -27.1,-24.9 -1.3,-3.8 -3.3,-3.5 -2.2,0.3 z"
   id="path204"
   inkscape:connector-curvature="0"
   style="fill:#fdd491" />
	<path
   class="st3"
   d="m 105,254.6 c -28.5,-6 -40.5,-11 -46.1,-13.4 -4.8,-2 -0.3,0.9 4.9,3.8 6.1,3.4 14.4,6.3 22.2,8 l 31.1,6.9 c 5,1.3 -0.1,-2.8 -12.1,-5.3 z"
   id="path206"
   inkscape:connector-curvature="0"
   style="fill:#fdd491" />
	<path
   class="st8"
   d="m 56.6,243.2 c 7.7,22.1 15.8,29.3 22.8,34.1 10.2,7 21.3,8.4 47.5,14.5 1.3,0.3 0.8,-2.5 -1.4,-3.3 -10.4,-3.7 -8.2,-13.6 -21.8,-17.3 -8.4,-2.3 -14.1,-4 -19.7,-5.8 -20,-6.7 -26.7,-20.6 -27.4,-22.2 z"
   id="path208"
   inkscape:connector-curvature="0"
   style="clip-rule:evenodd;fill:#dfb560;fill-rule:evenodd" />
	<path
   class="st3"
   d="m 118.4,287.6 c 0.1,-0.5 -0.8,-1.2 -2,-1.5 -1.2,-0.3 -2.4,-0.2 -2.5,0.3 -0.1,0.5 0.8,1.2 2,1.5 1.2,0.4 2.3,0.2 2.5,-0.3 z M 63.8,258.4 c 8.6,16 19.5,23 47.3,28.6 1.4,0.3 2.4,-1.5 -0.8,-2.6 -3.6,-1.2 -3.4,-4.3 -7.3,-5.4 -13.5,-3.9 -29.9,-7.8 -41.8,-26.7 -2.7,-4.3 1.8,4.8 2.6,6.1 z"
   id="path210"
   inkscape:connector-curvature="0"
   style="fill:#fdd491" />
	<path
   class="st8"
   d="m 106.1,217.5 c 5.9,25.9 13.7,32.1 20.5,37.3 9.8,7.5 21.9,10.3 46.8,16.4 1.3,0.3 1.1,-9.1 -14.5,-14.1 -10.9,-3.5 -20.4,-6.5 -25.8,-8.8 -16.5,-7.1 -22,-20.9 -27,-30.8 z"
   id="path212"
   inkscape:connector-curvature="0"
   style="clip-rule:evenodd;fill:#dfb560;fill-rule:evenodd" />
	<path
   class="st3"
   d="m 111.6,232 c 6.4,20.5 19.3,28.8 58.2,37.3 3.9,0.8 -1,-3.4 -9.8,-6 -31.4,-9.5 -37.5,-13.5 -46.9,-30.4 -2.5,-4.5 -2.3,-2.2 -1.5,-0.9 z"
   id="path214"
   inkscape:connector-curvature="0"
   style="fill:#fdd491" />
	<path
   class="st3"
   d="m 129,226.7 c -14.4,-6.3 -17.7,-7.6 -22.3,-10.4 -4,-2.5 0.9,2 5.1,4.8 5.9,3.8 15.8,8 24.3,11.6 4.5,1.9 -1.2,-3.5 -7.1,-6 z"
   id="path216"
   inkscape:connector-curvature="0"
   style="fill:#fdd491" />
	<path
   class="st8"
   d="m 102,298.5 c 9.9,26.7 20.4,32.5 40.2,36.7 2.4,0.5 -1.3,-6.4 -7.3,-8.7 -6.8,-2.5 -11.3,-4.9 -15.4,-7.8 -11.1,-7.5 -12.3,-16.9 -17.5,-20.2 z"
   id="path218"
   inkscape:connector-curvature="0"
   style="clip-rule:evenodd;fill:#dfb560;fill-rule:evenodd" />
	<path
   class="st3"
   d="m 105.5,305.6 c 5.6,14.1 14.7,23.1 29.9,27.4 3.4,1 1.1,-2 -2.5,-3.5 -15.3,-6.6 -20.2,-11.6 -27.7,-25.9 -1.6,-3.2 -0.9,-1.1 0.3,2 z m 13.3,-3.6 c -8.2,-1.7 -13,-3.2 -16.8,-4.8 -0.4,-0.2 0.5,1.9 7.7,4.8 2,0.8 6.5,2.2 13.9,3.5 5.9,1 0.7,-2.4 -4.8,-3.5 z"
   id="path220"
   inkscape:connector-curvature="0"
   style="fill:#fdd491" />
	<path
   class="st3"
   d="m 133.4,349.7 c 5.6,14.1 14,24.5 29.2,28.8 3.4,1 1,-1.7 -2.5,-3.5 -15.2,-7.9 -19.8,-13.7 -27.3,-28.1 -1.7,-3.2 -0.6,-0.3 0.6,2.8 z"
   id="path222"
   inkscape:connector-curvature="0"
   style="fill:#fdd491" />
	<g
   id="g234">
		<path
   class="st4"
   d="m 173,287.3 c -20.6,-5 -26.6,-8.1 -32.1,-11.9 4.9,2.3 15.3,4.7 42.1,11.2 4,1 6.3,2.1 8.2,3.5 2.2,1.6 1.5,-1.1 1,-2.8 -1.7,-5.8 -7.1,-7.6 -13.2,-9.1 l -49,-11.9 7.5,18 c 6.6,14.5 16.5,21.7 33.6,25.9 0,0 17.6,3.3 20.5,6.7 3.3,3.8 3,-0.9 3,-7 0,-5.9 -1.4,-17.7 -21.6,-22.6 z"
   id="path224"
   inkscape:connector-curvature="0"
   style="clip-rule:evenodd;fill:#a3742a;fill-rule:evenodd" />
		<path
   class="st2"
   d="m 131.1,267.2 c 4.7,7.3 17.3,10.2 48.7,17.9 5.6,1.4 -0.8,-4.6 -12.6,-7.5 -24.4,-6 -31.5,-8.1 -36.1,-10.4 z"
   id="path226"
   inkscape:connector-curvature="0"
   style="fill:#cc9944" />
		<path
   class="st2"
   d="m 148.4,285.1 c -5.9,-6.7 -5.8,-7.4 -16.1,-15.1 0.3,1.1 3.9,9.3 5.8,13.2 3.9,7.9 10.2,19.9 32.8,25.4 l 16.7,3.8 c 8.3,2.5 4.5,-6.7 -7.3,-11 -19.8,-7.3 -25.8,-9.4 -31.9,-16.3 z"
   id="path228"
   inkscape:connector-curvature="0"
   style="fill:#cc9944" />
		<path
   class="st3"
   d="m 162,278 c -20.9,-5.1 -22.7,-5.9 -29.1,-9.2 -0.3,-0.2 2.6,3.2 10.1,5.8 7.9,2.8 19.7,5.6 30.8,8.3 6.3,1.5 -1,-2.3 -11.8,-4.9 z"
   id="path230"
   inkscape:connector-curvature="0"
   style="fill:#fdd491" />
		<path
   class="st3"
   d="m 134.8,274.5 c 7.3,18.1 14.6,27.2 37.9,32.9 3.4,0.8 0.2,-2.9 -2.9,-4 -21.4,-7.7 -27.8,-18.5 -30.9,-24.1 -1.2,-2.2 -5.5,-8.3 -4.1,-4.8 z"
   id="path232"
   inkscape:connector-curvature="0"
   style="fill:#fdd491" />
	</g>
	<g
   id="g246">
		<path
   class="st4"
   d="m 183.3,329 c -18.1,-8.4 -18.5,-8.1 -21.1,-11.7 2.3,1 7.2,2.6 19.7,7 11,3.8 12.3,9.2 12.3,8.2 0,-11.1 -6.6,-15.3 -15,-17.2 -20.3,-4.5 -23.5,-5.5 -26,-6.4 l 4.3,17.1 c 2.1,7 7.8,13.6 15.5,18.8 17.6,11.9 21.6,21.6 21.6,16.2 -0.2,-17.2 0.3,-26.5 -11.3,-32 z"
   id="path236"
   inkscape:connector-curvature="0"
   style="clip-rule:evenodd;fill:#a3742a;fill-rule:evenodd" />
		<path
   class="st2"
   d="m 154.1,309.7 c 2.5,4.9 10.7,8.5 22.1,10.6 2.4,0.5 -0.4,-4 -5.4,-5.3 -12.4,-3.1 -12.9,-3.7 -16.7,-5.3 z"
   id="path238"
   inkscape:connector-curvature="0"
   style="fill:#cc9944" />
		<path
   class="st2"
   d="m 170.5,327.9 c -10.7,-6.5 -9.4,-10.9 -15.9,-16.1 0.2,0.8 2.5,9.3 3.7,13 1.4,4.1 3.8,10.1 9.5,14.3 7.5,5.5 12.4,8 15.6,10.2 4,2.8 5.7,4.8 5.7,3.6 0,-8.7 -4,-16.2 -18.6,-25 z"
   id="path240"
   inkscape:connector-curvature="0"
   style="fill:#cc9944" />
		<path
   class="st3"
   d="m 167.5,315.6 c -8.4,-2.2 -8.7,-2.8 -11.7,-4.5 1.7,1.3 3.2,4 13.2,6.7 3.5,1.1 2.3,-1.2 -1.5,-2.2 z"
   id="path242"
   inkscape:connector-curvature="0"
   style="fill:#fdd491" />
		<path
   class="st3"
   d="m 156.3,315.3 c 1.1,4.6 2.8,10.2 4.4,13.6 5.3,10.6 19.1,16.3 19.3,15.6 0.6,-3.6 -12,-5 -19.8,-22.3 -0.9,-2 -4.1,-7.9 -3.9,-6.9 z"
   id="path244"
   inkscape:connector-curvature="0"
   style="fill:#fdd491" />
	</g>
	<g
   id="g328">
		<g
   id="g288">
			<g
   id="g284">
				<g
   id="g274">
					<g
   id="g260">
						<g
   id="g250">
							<path
   class="st4"
   d="m 374.3,417.5 c -5.4,13.5 -10.9,17.9 -15.1,17.9 l -4.9,-0.1 c -3,-0.1 -3.4,-1.1 6.3,-7 -11.3,5.7 -9.9,3 -8.9,1.1 l 2,-4.2 c 2.2,-3.9 5.1,-5.7 20.6,-7.7 z"
   id="path248"
   inkscape:connector-curvature="0"
   style="clip-rule:evenodd;fill:#a3742a;fill-rule:evenodd" />
						</g>
						<g
   id="g254">
							<path
   class="st4"
   d="m 328.6,440.8 c -7.2,1.4 -8.5,1.2 -8.5,-2.9 0,-3.3 8,-0.1 11.5,2.1 -2.2,3.7 -8.4,11.8 -9.5,8.6 -1.4,-4.1 -0.8,-5.3 6.5,-7.8 z"
   id="path252"
   inkscape:connector-curvature="0"
   style="clip-rule:evenodd;fill:#a3742a;fill-rule:evenodd" />
						</g>
						<path
   class="st4"
   d="M 374,438.7 350.3,437 c -4.4,-0.1 -6.4,0.4 -10.3,1.8 -4.2,1.5 -4.6,1.4 -9.9,7.7 -1.8,2.1 2.3,2 8.8,1.1 -1.9,0.5 -9.2,2.3 -12.2,3.1 -5.1,1.3 -0.3,5.9 3.7,5.6 5.8,-0.3 24.4,-6.4 43.6,-17.6 z"
   id="path256"
   inkscape:connector-curvature="0"
   style="clip-rule:evenodd;fill:#a3742a;fill-rule:evenodd" />
						<path
   class="st4"
   d="m 355.9,416.3 c -13.7,8.1 -24.8,11.4 -33.2,13 -3.8,0.8 -3.1,5.2 0.9,4.7 1.9,-0.3 5.7,-1.1 11.4,-2.6 -6.8,3 -7.3,3.7 -3.7,5.1 4.6,1.8 6.1,2 10.1,0.5 5.9,-1.8 8.1,-5.5 14.5,-20.7 z"
   id="path258"
   inkscape:connector-curvature="0"
   style="clip-rule:evenodd;fill:#a3742a;fill-rule:evenodd" />
					</g>
					<path
   class="st5"
   d="m 372.9,439 c -11.8,6.2 -25.9,11.9 -40.7,14.6 -5.3,0.5 -9.2,-1.4 -4,-2.6 17.1,-4.7 28.5,-7.5 44.7,-12 z"
   id="path262"
   inkscape:connector-curvature="0"
   style="clip-rule:evenodd;fill:#cc9944;fill-rule:evenodd" />
					<path
   class="st2"
   d="m 338.3,436.9 c -1.8,0.4 -5.6,-0.5 -1.6,-2.1 5.8,-2.3 9.6,-3.3 16.3,-13.3 -5.1,11.5 -7.2,13.6 -14.7,15.4 z M 324.1,430 c 5,-1.3 17,-4.5 30.2,-12 -6,10.4 -21.7,13.3 -29.5,14.7 -3.6,0.8 -2.9,-2.1 -0.7,-2.7 z"
   id="path264"
   inkscape:connector-curvature="0"
   style="fill:#cc9944" />
					<path
   class="st3"
   d="m 354.3,418 c -4.6,4.8 -14.8,9.7 -26.1,12.8 -2.8,0.8 -3.6,-0.8 1.1,-2.3 6,-1.7 15.2,-5 25,-10.5 z"
   id="path266"
   inkscape:connector-curvature="0"
   style="fill:#fdd491" />
					<path
   class="st5"
   d="m 330.8,440.7 c -1.6,2.5 -3.7,4.8 -5.8,6.6 -2.6,2.3 -3.4,-1.8 -1.3,-3.1 2.3,-1.4 6.1,-3.1 7.1,-3.5 z"
   id="path268"
   inkscape:connector-curvature="0"
   style="clip-rule:evenodd;fill:#cc9944;fill-rule:evenodd" />
					<path
   class="st5"
   d="m 331,440 c -3.6,-2.1 -7.8,-3.2 -9.5,-3.2 -0.8,0 -0.8,1.6 0.1,1.6 3.2,-0.2 6.6,0.8 9.4,1.6 z"
   id="path270"
   inkscape:connector-curvature="0"
   style="clip-rule:evenodd;fill:#cc9944;fill-rule:evenodd" />
					<path
   class="st2"
   d="m 362.7,433.7 c -1.7,1 -10.6,0.6 -7.2,-1.5 4.3,-2.6 11.7,-7.3 17.6,-13 -3.4,7.7 -6.8,12.5 -10.4,14.5 z"
   id="path272"
   inkscape:connector-curvature="0"
   style="fill:#cc9944" />
				</g>
				<path
   class="st2"
   d="m 347,438.1 c 1.5,-0.1 3.1,-0.1 4.7,-0.1 -1.8,0 -3.3,0 -4.7,0.1 z m -11,5.5 c -3.1,1.1 -1.9,-0.5 -0.4,-1.9 1.7,-1.3 8.1,-3.6 11.5,-3.8 1.4,-0.1 2.9,-0.1 4.7,-0.1 h 0.1 0.1 0.1 0.1 0.1 0.1 0.1 0.1 0.1 0.1 l 19.9,1 c -23.8,1.3 -24.9,0.7 -36.7,4.8 z"
   id="path276"
   inkscape:connector-curvature="0"
   style="fill:#cc9944" />
				<path
   class="st3"
   d="m 334.8,453.1 c -4.9,0.8 -9,-0.5 -1.5,-1.9 10.8,-2.6 24.7,-6.5 39.6,-12.2 -11.2,5.8 -24.3,11.2 -38.1,14.1 z"
   id="path278"
   inkscape:connector-curvature="0"
   style="fill:#fdd491" />
				<path
   class="st3"
   d="m 325.1,447.2 c 2,-1.8 4,-4 5.6,-6.5 -0.9,1 -4.1,3.7 -6,5 -1.6,1.4 -1.2,2.6 0.4,1.5 z"
   id="path280"
   inkscape:connector-curvature="0"
   style="fill:#fdd491" />
				<path
   class="st2"
   d="m 357.3,422.4 c -3.6,2.8 -3.4,4.9 -2.1,4 7,-4.7 10.2,-4.9 17.7,-8.1 -8.7,1.1 -13.6,2.4 -15.6,4.1 z"
   id="path282"
   inkscape:connector-curvature="0"
   style="fill:#cc9944" />
			</g>
			<path
   class="st3"
   d="m 364.1,432.8 c -1.3,0.9 -4.2,1 -1.8,-0.9 3.7,-2.6 7.3,-6.8 10.9,-12.7 -3.1,6.7 -6.1,11.3 -9.1,13.6 z"
   id="path286"
   inkscape:connector-curvature="0"
   style="fill:#fdd491" />
		</g>
		<g
   id="g314">
			<path
   class="st1"
   d="m 402.5,396.3 c -0.9,2.7 -2.2,4.5 -4.7,5.4 l -5.1,2 c -2.4,1 -1,-1.1 4.7,-9.3 -7.7,9.9 -8.8,7.8 -8.6,6 l 0.5,-4.5 c 0.3,-4 10.7,-10.6 8.8,-3.8 5.5,-5.7 5.8,0 4.4,4.2 z"
   id="path290"
   inkscape:connector-curvature="0"
   style="fill:#a3742a" />
			<path
   class="st1"
   d="m 380.8,432.2 c -12.5,7.8 -14.1,2.2 -7,-3.7 2.5,-2 8.2,-6.5 9.8,-7.8 -7.6,4.6 -8.5,5.4 -7.5,2.7 2.9,-7.7 2.3,-8 6.8,-12.2 3.7,-3.4 4.3,-3.6 8.7,-5.2 l 22.1,-7.5 c -15.9,21.5 -30.3,32 -32.9,33.7 z"
   id="path292"
   inkscape:connector-curvature="0"
   style="fill:#a3742a" />
			<path
   class="st1"
   d="m 382.2,410.4 c -2.9,3 -4.2,3.6 -10,4.4 -3.6,0.5 -4.3,1.1 3.6,-7.4 -3.3,2.4 -10.8,7.3 -12.3,8.4 -5.3,3.5 -5,0.7 0.4,-4.6 1.6,-1.6 4.7,-4.3 8.6,-8.3 1.9,-1.7 5.7,-6.3 6.9,-7.9 1.2,-1.5 2.5,-3.1 3.7,-4.9 1.3,-1.8 4.2,-0.9 4.2,1.4 0,11.3 -0.7,14.8 -5.1,18.9 z"
   id="path294"
   inkscape:connector-curvature="0"
   style="fill:#a3742a" />
			<path
   class="st2"
   d="m 401.2,392.5 c 0.8,-2.7 1.5,-1.2 1.1,1.1 -0.6,2.9 -1.5,4.8 -2.6,6.3 -0.8,1.1 -4.7,2.1 -2.9,0.2 1.8,-1.9 3.7,-5 4.4,-7.6 z"
   id="path296"
   inkscape:connector-curvature="0"
   style="fill:#cc9944" />
			<path
   class="st2"
   d="m 390.3,396.6 c 0.4,-3.4 3.8,-5 5.3,-5.3 1.3,0 -1.7,5.3 -4.1,8 -1,1.1 -1.7,1.6 -1.2,-2.7 z"
   id="path298"
   inkscape:connector-curvature="0"
   style="fill:#cc9944" />
			<path
   class="st5"
   d="m 412.5,399.7 c -8.6,11.2 -21.9,23.5 -35.7,30.9 -3.1,1.6 -6.2,1.3 -2.7,-1.6 12.7,-10.6 31.5,-24.6 38.4,-29.3 z"
   id="path300"
   inkscape:connector-curvature="0"
   style="clip-rule:evenodd;fill:#cc9944;fill-rule:evenodd" />
			<path
   class="st2"
   d="m 412.9,399.2 -18.8,6.7 c -5.3,2 -9.8,4.3 -13.3,8.4 -1.8,2.2 -2.6,5.2 0.1,3 10.4,-8.3 18.4,-10.8 32,-18.1 z"
   id="path302"
   inkscape:connector-curvature="0"
   style="fill:#cc9944" />
			<g
   id="g308">
				<path
   class="st2"
   d="m 386.9,392.8 c 0,-0.5 -0.7,-0.5 -0.7,-0.1 -2.3,13.1 -4.4,14.2 -9,18.6 -2,1.9 1.3,1.3 2,0.6 4.4,-3.6 7.3,-5.4 7.7,-19.1 z"
   id="path304"
   inkscape:connector-curvature="0"
   style="fill:#cc9944" />
				<path
   class="st2"
   d="m 366.9,412.4 c 11,-7.3 16.4,-11.3 18,-21.3 0.1,-0.7 -0.8,-1.2 -1.3,-0.6 -1,1.3 -1.9,2.5 -3.1,4 -1.8,2.4 -5,6.9 -8.7,10.1 -4,3.7 -6,5.7 -7.8,7.3 -3.3,2.8 -2.3,4.1 2.9,0.5 z"
   id="path306"
   inkscape:connector-curvature="0"
   style="fill:#cc9944" />
			</g>
			<path
   class="st3"
   d="m 378.3,429.7 c -2,1.1 -5.8,1 -1.6,-1.6 8.6,-5.8 24,-16.2 35.7,-28.5 -8.2,10.8 -20.9,22.7 -34.1,30.1 z"
   id="path310"
   inkscape:connector-curvature="0"
   style="fill:#fdd491" />
			<path
   class="st3"
   d="m 371.6,404.9 c 1.9,-1.4 2.2,-0.6 1.4,0.3 -1.7,2 -4,4.2 -6.5,5.9 -2.6,1.8 -4.1,2.3 -1.4,-0.1 1.5,-1.4 3.4,-3.3 6.5,-6.1 z"
   id="path312"
   inkscape:connector-curvature="0"
   style="fill:#fdd491" />
		</g>
		<g
   id="g326">
			<path
   class="st1"
   d="m 414.1,382 c -5.3,6.9 -6.5,8.3 -6.6,5.7 -0.3,-7.7 0,-8.4 2.2,-13.4 1.7,-3.7 2.7,-5.5 5.7,-8.6 l 17.4,-15.8 c -6,25.4 -14.4,39.7 -16.4,42 -4.9,5.5 -12.9,8.3 -8.5,0.6 1.7,-2.6 5.3,-8.7 6.2,-10.5 z"
   id="path316"
   inkscape:connector-curvature="0"
   style="fill:#a3742a" />
			<g
   id="g322">
				<path
   class="st5"
   d="m 432.2,351.7 c -3.4,13.4 -10.9,29.4 -20.9,41.1 -2.2,2.6 -5.3,3.5 -3.2,-0.3 7.8,-14.1 19.6,-33.8 24.1,-40.8 z"
   id="path318"
   inkscape:connector-curvature="0"
   style="clip-rule:evenodd;fill:#cc9944;fill-rule:evenodd" />
				<path
   class="st2"
   d="m 432.4,351.1 -14.6,13.7 c -5,4.8 -6.3,8 -8.2,12.2 -1.1,2.5 -0.1,5.5 1.2,2.5 5.9,-12.9 8,-12.3 21.6,-28.4 z"
   id="path320"
   inkscape:connector-curvature="0"
   style="fill:#cc9944" />
			</g>
			<path
   class="st3"
   d="m 432.2,351.7 c -3.3,12.9 -10.3,28.2 -19.8,39.7 -1.4,1.7 -5,3.1 -2.1,-0.7 5.8,-8.3 16,-23.4 21.9,-39 z"
   id="path324"
   inkscape:connector-curvature="0"
   style="fill:#fdd491" />
		</g>
	</g>
	<path
   class="st4"
   d="m 478.7,206.9 107.1,-36.8 c 1,-0.2 -1.6,16 -8.2,29.1 -6.6,13 -16.6,26.8 -43.1,35.1 l -43.7,13.5 c 4.5,-4.9 6.3,-9 7.8,-13.7 l 3.5,-10.8 c 2.9,-9.7 4.6,-10.2 14.1,-14.1 0,0 35.4,-13.1 44.3,-17.2 10.2,-4.7 12.9,-8.5 11.4,-7.6 -5,2.6 -15.8,7.2 -35.9,13.8 l -58.5,19.4 c -4.9,1.6 -10,4.5 -7.3,-2.8 1.5,-4.2 5.3,-6.9 8.5,-7.9 z"
   id="path330"
   inkscape:connector-curvature="0"
   style="clip-rule:evenodd;fill:#a3742a;fill-rule:evenodd" />
	<path
   class="st4"
   d="m 552,237.1 -7.7,19.5 c -8.3,19.5 -20.7,27.5 -41,32 l -37.9,8.6 c 3.8,-4.2 5.1,-7.1 6.5,-11.1 l 2.7,-8.1 c 2.3,-6.8 2.6,-11 16.8,-14 l 14.4,-3.3 c 10.3,-2.4 20.5,-5.1 29.7,-10.5 3.6,-2.2 7.2,-5.3 5.5,-4.3 -11,6.7 -23.6,9 -35.8,11.8 l -21,4.5 c -5.8,1.3 -6,0.7 -1.9,-4.6 4.2,-5.5 7.4,-6 16.2,-8.1 z"
   id="path332"
   inkscape:connector-curvature="0"
   style="clip-rule:evenodd;fill:#a3742a;fill-rule:evenodd" />
	<path
   class="st4"
   d="m 467.5,300.3 38.3,-5.4 -6.8,15.8 c -7,16.1 -18.8,24.8 -39.3,28.3 l -15.9,2.5 c 2.3,-3 3.2,-5.4 4.5,-9.4 4,-11.4 6.8,-18.4 19.2,-20.2 20.5,-3.1 25.2,-7.3 27.1,-8.5 -5.4,2.4 -15,4.2 -25.3,5.5 l -9.5,1.3 c -5.2,0.8 -6.5,0 -3.1,-3.8 0.4,-0.4 0.8,-0.8 1.1,-1.2 3.3,-3.5 4.4,-4.1 9.7,-4.9 z"
   id="path334"
   inkscape:connector-curvature="0"
   style="clip-rule:evenodd;fill:#a3742a;fill-rule:evenodd" />
	<path
   class="st4"
   d="m 453.8,343.7 21.2,-1 -4.1,11.5 c -6.2,13.8 -16.8,27.8 -38.6,28.2 -4.3,0.1 -4.7,1.4 0.1,-13.4 1.5,-4.6 4.8,-11.1 13.4,-12.6 14.4,-2.6 17.5,-4.7 18.7,-6.1 -2.9,1.3 -8.4,2 -19.3,3.2 -4.9,0.5 -6.2,0.7 -4.6,-1.7 3.2,-4.8 6,-7.2 13.2,-8.1 z"
   id="path336"
   inkscape:connector-curvature="0"
   style="clip-rule:evenodd;fill:#a3742a;fill-rule:evenodd" />
	<path
   class="st4"
   d="m 457.2,266.9 -25.6,6.6 c -13.2,3.2 -14.7,5.1 -15.8,2.9 -4.3,-9.8 9.2,-25.1 25.3,-30.5 0,0 18.6,-6.2 29.2,-9.9 13.5,-4.7 19.8,-10.9 22.4,-13.8 -5.8,4.3 -11.6,7.2 -25.1,12.2 -5.9,2 -9.6,2.9 -4.9,-4.2 2.8,-4.2 5,-6.4 8.3,-7.2 l 30.9,-10.2 -6.7,20.1 c -5.1,15.4 -14.2,28.3 -38,34 z"
   id="path338"
   inkscape:connector-curvature="0"
   style="clip-rule:evenodd;fill:#a3742a;fill-rule:evenodd" />
	<path
   class="st4"
   d="m 410.9,267.6 c -0.4,1 -1.9,0.8 -1.9,-0.3 v -8.1 c 0,-26.6 10.5,-38.5 32.9,-46.3 l 28.6,-10.3 c 1,-0.5 -1.4,8.8 -3.7,15.8 -5.5,17.2 -15.7,20.1 -28.7,24.3 -3.5,1.2 -21.3,7.2 -27.2,24.9 z"
   id="path340"
   inkscape:connector-curvature="0"
   style="clip-rule:evenodd;fill:#a3742a;fill-rule:evenodd" />
	<path
   class="st2"
   d="m 416,251.8 c -1.7,3 -0.8,4 1.3,1.2 1.1,-1.4 -0.7,-2.3 -1.3,-1.2 z"
   id="path342"
   inkscape:connector-curvature="0"
   style="fill:#cc9944" />
	<path
   class="st2"
   d="m 441.8,214.2 c -11.5,4.5 -18,9.3 -22.2,16 -5,7.9 -5.8,16.8 5.4,11 -0.3,1.7 -2.5,1.8 -6.5,6.7 -1.4,1.7 -0.2,3.1 1.6,1.8 2.7,-2.4 5.7,-4.9 12.1,-7.4 l 7.4,-2.5 c 19.9,-6.5 24.6,-9.7 30.1,-34.6 0.2,-1 0.2,-1.2 -1.7,-0.4 z"
   id="path344"
   inkscape:connector-curvature="0"
   style="fill:#cc9944" />
	<path
   class="st2"
   d="m 473.7,214.3 c -1.7,2 -2.3,3.7 0.7,2.8 l 61,-20.3 c 27.1,-8.9 35.9,-12.9 40.9,-16.1 -4,7.7 -8.6,15.2 -25.7,22.3 -11.2,4.6 -28.1,10.7 -28.1,10.7 -10,3.5 -13.7,6.1 -16.4,15.4 -2.3,7.8 -4.3,8 -7.2,9.9 -2.8,1.9 -3.8,6.2 -2.2,5.4 l 35.2,-11.3 c 25.9,-8.1 35.9,-18.9 44.2,-34 3,-5.5 8.1,-18.4 8.9,-28 -12.7,5.1 -41.7,15.6 -89.6,32.7 -13.7,4.9 -19.2,7.6 -21.7,10.5 z"
   id="path346"
   inkscape:connector-curvature="0"
   style="fill:#cc9944" />
	<path
   class="st2"
   d="m 463.1,235.2 c 15.7,-5.9 25.4,-10.3 31,-15.1 -0.1,0.1 -4.6,18 -30.9,26.4 -27.3,8.7 -35.5,12.7 -35.3,22.8 0,2.1 0.2,3.5 3.4,2.6 l 25.6,-6.6 c 23.3,-5.6 32.5,-18.2 37.4,-33.3 l 5.8,-18 c -2.2,1.4 -9.4,4.3 -22.8,9.6 -13.7,5.5 -16.6,12.4 -14.2,11.6 z"
   id="path348"
   inkscape:connector-curvature="0"
   style="fill:#cc9944" />
	<path
   class="st2"
   d="m 483,261.5 24.7,-5.5 c 13.7,-3.1 27,-5.7 38.7,-14.6 1.7,-1.2 -0.6,1.4 -1.9,3 -7.4,8.7 -16.7,15.2 -35.3,19.2 l -5,1.2 c -13.3,2.8 -17.6,4.8 -23.8,16.5 -2.7,5.1 -3,5.7 -7.6,9.3 -2,1.6 -2.4,3.6 -2.4,3.6 l 32.8,-7.3 c 20,-4.5 32.4,-13.4 40.5,-32.3 l 6.8,-16.7 c -9.4,3.7 -26,8 -52.8,14.8 -11,2.9 -21.2,10.5 -14.7,8.8 z"
   id="path350"
   inkscape:connector-curvature="0"
   style="fill:#cc9944" />
	<path
   class="st2"
   d="m 460,309.2 9.4,-1.3 c 12.4,-1.6 23.2,-3.4 28.2,-6.7 -4.4,6.4 -9,11.7 -25.5,18.1 -14.9,5.8 -13.8,13.9 -18.9,15.3 -2.4,0.7 -5.7,4.4 -2.8,4 l 9.6,-1.7 c 20.1,-3.5 30.9,-11.3 37.7,-26.8 l 6.4,-14.2 c -5.5,1.5 -12.8,3.2 -22.1,4.8 -22.8,4.7 -27.1,9.6 -22,8.5 z"
   id="path352"
   inkscape:connector-curvature="0"
   style="fill:#cc9944" />
	<path
   class="st2"
   d="m 447.1,351.9 c 9.4,-0.2 17.8,-2.2 21.1,-4.3 -5.4,10.8 -11.4,11.9 -25.7,20 -5.1,2.9 -10.7,13 -10.1,12.9 2.3,0 7.1,-0.5 10,-1.3 14.3,-4 22.1,-14.7 27.1,-25.7 l 4.2,-10 -7.2,1.1 c -16.6,2.7 -22,7.5 -19.4,7.3 z"
   id="path354"
   inkscape:connector-curvature="0"
   style="fill:#cc9944" />
	<path
   class="st7"
   d="m 423.3,233.6 c -0.6,-6.9 7.5,-14 18.2,-18.3 26.3,-10.6 24.2,-10.9 19,3.1 -1.5,3.9 -0.4,2.8 1.8,-1.2 1.4,-2.5 2.7,-6.6 4.1,-10.2 0.6,-1.5 2.8,-2.2 2.5,-0.6 -3.8,20 -11,26.8 -23.2,30.3 -5.8,1.7 -10.2,3.2 -13.2,4.5 -7.3,3 -4.2,-1.2 3.6,-4.6 1.9,-0.8 4.6,-3.1 2.6,-2.4 -10.4,3.7 -15.1,3.1 -15.4,-0.6 z"
   id="path356"
   inkscape:connector-curvature="0"
   style="fill:#dfb560" />
	<path
   class="st8"
   d="m 583.6,175.6 c -4.4,22.2 -15,35.2 -23.2,42 -12.8,10.5 -24.6,13.5 -59,24.7 -1.7,0.5 1.6,-4.1 4.4,-5.3 9.3,-4.1 3.9,-9 16.2,-13.9 10.9,-4.3 17.8,-7 25.2,-10.1 30.6,-12.8 37.1,-41.5 36.4,-37.4 z"
   id="path358"
   inkscape:connector-curvature="0"
   style="clip-rule:evenodd;fill:#dfb560;fill-rule:evenodd" />
	<path
   class="st3"
   d="m 514.6,236.5 c 1.2,-0.4 2,-1 1.9,-1.5 -0.1,-0.5 -1.2,-0.5 -2.3,-0.2 -1.2,0.4 -2,1 -1.9,1.5 0.1,0.5 1.1,0.6 2.3,0.2 z M 578,188.9 c -4.7,8.6 -10.4,18 -27.8,27.8 -6.2,3.5 -13.4,6.4 -23.2,10.5 -2.6,1.1 -1.8,3.4 -6.1,5.2 -3.7,1.5 -1.8,3 -0.2,2.4 32.2,-10.5 44.1,-16.7 55.9,-40.2 5,-9.7 5.4,-13.1 1.4,-5.7 z"
   id="path360"
   inkscape:connector-curvature="0"
   style="fill:#fdd491" />
	<path
   class="st3"
   d="m 485.9,209.7 57.8,-20.5 c 12.8,-4.3 31.9,-12.2 39.5,-16.2 1.5,-0.8 -1.3,1.9 -3.1,3.5 -6.5,5.4 -14.8,9.3 -22.3,11.8 l -80.8,27 c -7.4,2.5 1,-3 8.9,-5.6 z"
   id="path362"
   inkscape:connector-curvature="0"
   style="fill:#fdd491" />
	<path
   class="st3"
   d="m 442.7,228 c 7.8,-6.2 8.1,-12.5 17.1,-16.7 3,-1.4 4,-4.2 -0.8,-2.3 -5.4,2 -11.4,4.7 -17.4,7.2 -12.5,5.2 -15,11.8 -14.6,15 0.4,3.3 8.1,2.8 15.7,-3.2 z m 22.6,-16.7 c -4.8,15.1 -12.2,19.2 -27.1,24.9 -2.5,1 -3.4,3.1 -0.6,2.2 18.9,-5.8 24.3,-8.2 29.9,-26.8 1.1,-3.8 -0.9,-4.1 -2.2,-0.3 z"
   id="path364"
   inkscape:connector-curvature="0"
   style="fill:#fdd491" />
	<path
   class="st3"
   d="m 499,254.6 c 28.5,-6 40.5,-11 46.1,-13.4 4.8,-2 0.3,0.9 -4.9,3.8 -6.1,3.4 -14.4,6.3 -22.2,8 l -31.1,6.9 c -5,1.3 0.1,-2.8 12.1,-5.3 z"
   id="path366"
   inkscape:connector-curvature="0"
   style="fill:#fdd491" />
	<path
   class="st8"
   d="m 547.4,243.2 c -7.7,22.1 -15.8,29.3 -22.8,34.1 -10.2,7 -21.3,8.4 -47.5,14.5 -1.3,0.3 -0.8,-2.5 1.4,-3.3 10.4,-3.7 8.2,-13.6 21.8,-17.3 8.4,-2.3 14.1,-4 19.7,-5.8 20,-6.7 26.7,-20.6 27.4,-22.2 z"
   id="path368"
   inkscape:connector-curvature="0"
   style="clip-rule:evenodd;fill:#dfb560;fill-rule:evenodd" />
	<path
   class="st3"
   d="m 488.1,287.9 c 1.2,-0.3 2.2,-1 2,-1.5 -0.1,-0.5 -1.2,-0.6 -2.5,-0.3 -1.2,0.3 -2.2,1 -2,1.5 0.2,0.5 1.3,0.7 2.5,0.3 z m 54.7,-35.6 C 531,271.2 514.5,275.1 501,279 c -3.9,1.1 -3.7,4.2 -7.3,5.4 -3.2,1.1 -2.2,2.9 -0.8,2.6 27.8,-5.6 38.7,-12.6 47.3,-28.6 0.8,-1.3 5.3,-10.4 2.6,-6.1 z"
   id="path370"
   inkscape:connector-curvature="0"
   style="fill:#fdd491" />
	<path
   class="st8"
   d="m 497.9,217.5 c -5.9,25.9 -13.7,32.1 -20.5,37.3 -9.8,7.5 -21.9,10.3 -46.8,16.4 -1.3,0.3 -1.1,-9.1 14.5,-14.1 10.9,-3.5 20.4,-6.5 25.8,-8.8 16.4,-7.1 22,-20.9 27,-30.8 z"
   id="path372"
   inkscape:connector-curvature="0"
   style="clip-rule:evenodd;fill:#dfb560;fill-rule:evenodd" />
	<path
   class="st3"
   d="m 492.4,232 c -6.4,20.5 -19.3,28.8 -58.2,37.3 -3.9,0.8 1,-3.4 9.8,-6 31.4,-9.5 37.5,-13.5 46.9,-30.4 2.5,-4.5 2.3,-2.2 1.5,-0.9 z"
   id="path374"
   inkscape:connector-curvature="0"
   style="fill:#fdd491" />
	<path
   class="st3"
   d="m 475,226.7 c 14.4,-6.3 17.7,-7.6 22.3,-10.4 4,-2.5 -0.9,2 -5.1,4.8 -5.9,3.8 -15.8,8 -24.3,11.6 -4.5,1.9 1.2,-3.5 7.1,-6 z"
   id="path376"
   inkscape:connector-curvature="0"
   style="fill:#fdd491" />
	<path
   class="st8"
   d="m 502,298.5 c -9.9,26.7 -20.4,32.5 -40.2,36.7 -2.4,0.5 1.3,-6.4 7.3,-8.7 6.8,-2.5 11.3,-4.9 15.4,-7.8 11.1,-7.5 12.3,-16.9 17.5,-20.2 z"
   id="path378"
   inkscape:connector-curvature="0"
   style="clip-rule:evenodd;fill:#dfb560;fill-rule:evenodd" />
	<path
   class="st3"
   d="m 498.8,303.6 c -7.5,14.3 -12.4,19.3 -27.7,25.9 -3.6,1.5 -5.9,4.5 -2.5,3.5 15.2,-4.3 24.3,-13.3 29.9,-27.4 1.2,-3.1 1.9,-5.2 0.3,-2 z m -18.4,1.9 c 7.4,-1.3 11.9,-2.7 13.9,-3.5 7.2,-2.9 8.1,-4.9 7.7,-4.8 -3.8,1.7 -8.6,3.1 -16.8,4.8 -5.5,1.1 -10.7,4.5 -4.8,3.5 z"
   id="path380"
   inkscape:connector-curvature="0"
   style="fill:#fdd491" />
	<path
   class="st3"
   d="m 470.6,349.7 c -5.6,14.1 -14,24.5 -29.2,28.8 -3.4,1 -1,-1.7 2.5,-3.5 15.2,-7.9 19.8,-13.7 27.3,-28.1 1.7,-3.2 0.6,-0.3 -0.6,2.8 z"
   id="path382"
   inkscape:connector-curvature="0"
   style="fill:#fdd491" />
	<g
   id="g394">
		<path
   class="st4"
   d="m 431,287.3 c 20.6,-5 26.6,-8.1 32.1,-11.9 -4.9,2.3 -15.3,4.7 -42.1,11.2 -4,1 -6.3,2.1 -8.2,3.5 -2.2,1.6 -1.5,-1.1 -1,-2.8 1.7,-5.8 7.1,-7.6 13.2,-9.1 l 48.9,-11.9 -7.5,18 c -6.6,14.5 -16.5,21.7 -33.6,25.9 0,0 -17.6,3.3 -20.5,6.7 -3.3,3.8 -3,-0.9 -3,-7 0.1,-5.9 1.5,-17.7 21.7,-22.6 z"
   id="path384"
   inkscape:connector-curvature="0"
   style="clip-rule:evenodd;fill:#a3742a;fill-rule:evenodd" />
		<path
   class="st2"
   d="m 436.8,277.6 c -11.8,2.9 -18.2,8.8 -12.6,7.5 31.4,-7.6 44,-10.5 48.7,-17.9 -4.6,2.3 -11.7,4.4 -36.1,10.4 z"
   id="path386"
   inkscape:connector-curvature="0"
   style="fill:#cc9944" />
		<path
   class="st2"
   d="m 423.6,301.4 c -11.8,4.3 -15.6,13.6 -7.3,11 l 16.7,-3.8 c 22.6,-5.5 28.9,-17.4 32.8,-25.4 1.9,-3.9 5.5,-12.1 5.8,-13.2 -10.3,7.7 -10.1,8.4 -16.1,15.1 -6,6.9 -12,9 -31.9,16.3 z"
   id="path388"
   inkscape:connector-curvature="0"
   style="fill:#cc9944" />
		<path
   class="st3"
   d="m 442,278 c 20.9,-5.1 22.7,-5.9 29.1,-9.2 0.3,-0.2 -2.6,3.2 -10.1,5.8 -7.9,2.8 -19.7,5.6 -30.8,8.3 -6.3,1.5 1,-2.3 11.8,-4.9 z"
   id="path390"
   inkscape:connector-curvature="0"
   style="fill:#fdd491" />
		<path
   class="st3"
   d="m 469.2,274.5 c -7.3,18.1 -14.6,27.2 -37.9,32.9 -3.4,0.8 -0.2,-2.9 2.9,-4 21.4,-7.7 27.8,-18.5 30.9,-24.1 1.2,-2.2 5.5,-8.3 4.1,-4.8 z"
   id="path392"
   inkscape:connector-curvature="0"
   style="fill:#fdd491" />
	</g>
	<g
   id="g406">
		<path
   class="st4"
   d="m 420.7,329 c 18.1,-8.4 18.5,-8.1 21.1,-11.7 -2.3,1 -7.2,2.6 -19.7,7 -11,3.8 -12.3,9.2 -12.3,8.2 0,-11.1 6.6,-15.3 15,-17.2 20.3,-4.5 23.5,-5.5 26,-6.4 l -4.3,17.1 c -2.1,7 -7.8,13.6 -15.5,18.8 -17.6,11.9 -21.6,21.6 -21.6,16.2 0.2,-17.2 -0.3,-26.5 11.3,-32 z"
   id="path396"
   inkscape:connector-curvature="0"
   style="clip-rule:evenodd;fill:#a3742a;fill-rule:evenodd" />
		<path
   class="st2"
   d="m 449.9,309.7 c -2.5,4.9 -10.7,8.5 -22.1,10.6 -2.4,0.5 0.4,-4 5.4,-5.3 12.4,-3.1 12.9,-3.7 16.7,-5.3 z"
   id="path398"
   inkscape:connector-curvature="0"
   style="fill:#cc9944" />
		<path
   class="st2"
   d="m 433.5,327.9 c 10.7,-6.5 9.4,-10.9 15.9,-16.1 -0.2,0.8 -2.5,9.3 -3.7,13 -1.4,4.1 -3.8,10.1 -9.5,14.3 -7.5,5.5 -12.4,8 -15.6,10.2 -4,2.8 -5.7,4.8 -5.7,3.6 0,-8.7 4,-16.2 18.6,-25 z"
   id="path400"
   inkscape:connector-curvature="0"
   style="fill:#cc9944" />
		<path
   class="st3"
   d="m 436.5,315.6 c 8.4,-2.2 8.7,-2.8 11.7,-4.5 -1.7,1.3 -3.2,4 -13.2,6.7 -3.5,1.1 -2.3,-1.2 1.5,-2.2 z"
   id="path402"
   inkscape:connector-curvature="0"
   style="fill:#fdd491" />
		<path
   class="st3"
   d="m 447.7,315.3 c -1.1,4.6 -2.8,10.2 -4.4,13.6 -5.3,10.6 -19.1,16.3 -19.3,15.6 -0.6,-3.6 12,-5 19.8,-22.3 0.9,-2 4.1,-7.9 3.9,-6.9 z"
   id="path404"
   inkscape:connector-curvature="0"
   style="fill:#fdd491" />
	</g>
</g>
</svg>